<svg xmlns="http://www.w3.org/2000/svg" aria-hidden="true" style="position:absolute;width:0;height:0;overflow:hidden">
  <defs>
    <symbol id="icon-arrow-down" viewBox="0 0 32 32">
      <path d="M3.76 9.143 0 12.622l16 14.807 16-14.807-3.76-3.479L16 20.446 3.76 9.143z"/>
    </symbol>
    <symbol id="icon-arrow-up" viewBox="0 0 32 32">
      <path d="M3.76 25.143 0 21.664 16 6.857l16 14.807-3.76 3.479L16 13.84 3.76 25.143z"/>
    </symbol>
    <symbol id="icon-date" viewBox="0 0 32 32">
      <path d="M22.667 4H28c.736 0 1.333.597 1.333 1.333v21.334c0 .736-.597 1.333-1.333 1.333H4a1.333 1.333 0 0 1-1.333-1.333V5.333C2.667 4.597 3.264 4 4 4h5.333V1.333H12V4h8V1.333h2.667V4zm4 10.667H5.333v10.666h21.334V14.667zm-6.667-8h-8v2.666H9.333V6.667h-4V12h21.334V6.667h-4v2.666H20V6.667zM8 17.333h2.667V20H8v-2.667zm6.667 0h2.666V20h-2.666v-2.667zm6.666 0H24V20h-2.667v-2.667z"/>
    </symbol>
    <symbol id="icon-favorite-add" viewBox="0 0 32 32">
      <path fill="#4b48da" d="M8.382 2.286C4.174 2.286.761 5.662.761 9.829c0 3.362 1.335 11.344 14.459 19.413a1.494 1.494 0 0 0 1.565-.004l-.006.004c13.125-8.069 14.459-16.05 14.459-19.413 0-4.167-3.413-7.543-7.621-7.543-4.206 0-7.618 4.571-7.618 4.571s-3.413-4.571-7.618-4.571z"/>
    </symbol>
    <symbol id="icon-favorite-remove" viewBox="0 0 32 32">
      <path fill="none" stroke="#4440f7" stroke-linecap="round" stroke-linejoin="round" stroke-width="2" d="M9.334 4c-3.682 0-6.668 2.954-6.668 6.6 0 2.942 1.168 9.926 12.652 16.986a1.31 1.31 0 0 0 1.37-.003l-.006.003c11.484-7.06 12.652-14.044 12.652-16.986 0-3.646-2.986-6.6-6.668-6.6C18.986 4 16 8 16 8s-2.986-4-6.666-4z"/>
    </symbol>
    <symbol id="icon-favorite" viewBox="0 0 32 32">
      <path fill="none" stroke="#f4f4f4" stroke-linecap="round" stroke-linejoin="round" stroke-width="1.778" d="M27.787 6.146C26.46 4.818 24.626 3.997 22.6 3.997s-3.859.821-5.187 2.149L16 7.559l-1.413-1.413A7.335 7.335 0 0 0 4.214 16.52L16 28.306l11.787-11.787c1.328-1.327 2.149-3.161 2.149-5.187s-.821-3.859-2.149-5.187h0z"/>
    </symbol>
    <symbol id="icon-home" viewBox="0 0 32 32">
      <path fill="none" stroke="#f4f4f4" stroke-linecap="round" stroke-linejoin="round" stroke-width="1.778" d="m4 12 12-9.333L28 12v14.667a2.667 2.667 0 0 1-2.667 2.667v0H6.666a2.667 2.667 0 0 1-2.667-2.667v0V12z"/>
      <path fill="none" stroke="#f4f4f4" stroke-linecap="round" stroke-linejoin="round" stroke-width="1.778" d="M12 29.333V16h8v13.333" style="stroke:var(--color4, #f4f4f4)"/>
    </symbol>
    <symbol id="icon-moon" viewBox="0 0 32 32">
      <path fill="none" stroke="" stroke-linecap="round" stroke-linejoin="round" stroke-width="2.526" d="M29.263 17.164c-.646 6.779-6.311 12.04-13.205 12.04-7.324 0-13.261-5.937-13.261-13.261 0-6.894 5.26-12.559 11.986-13.201l.053-.004a10.24 10.24 0 0 0-2.019 6.13c0 5.697 4.619 10.316 10.316 10.316 2.308 0 4.439-.758 6.158-2.038l-.027.02z"/>
    </symbol>
    <symbol id="icon-read" viewBox="0 0 32 32">
      <path fill="none" stroke="#f4f4f4" stroke-linecap="round" stroke-linejoin="round" stroke-width="1.778" d="M2.667 4h8A5.333 5.333 0 0 1 16 9.333V28a4 4 0 0 0-4-4v0H2.667V4zm26.666 0h-8A5.333 5.333 0 0 0 16 9.333V28a4 4 0 0 1 4-4v0h9.333V4z"/>
    </symbol>
    <symbol id="icon-search" viewBox="0 0 32 32">
      <path d="M13.333 23.6c2.368 0 4.666-.752 6.53-2.138l5.862 5.568 1.885-1.792-5.862-5.568a9.7 9.7 0 0 0 2.253-6.201v-.002c0-5.587-4.784-10.134-10.667-10.134-5.882 0-10.666 4.547-10.666 10.134S7.452 23.6 13.334 23.6zm0-17.733c4.413 0 8 3.408 8 7.6s-3.587 7.6-8 7.6c-4.411 0-8-3.408-8-7.6s3.589-7.6 8-7.6z"/>
    </symbol>
    <symbol id="icon-sun" viewBox="0 0 32 32">
      <path fill="none" stroke="" stroke-linecap="round" stroke-linejoin="round" stroke-width="2.286" d="M16 1.778v2.586m0 23.272v2.586M5.943 5.943l1.836 1.836m16.445 16.445 1.836 1.836M1.778 16h2.586m23.272 0h2.586M5.943 26.059l1.836-1.836M24.222 7.778l1.836-1.836M22.466 16a6.465 6.465 0 0 1-12.93 0v0a6.465 6.465 0 0 1 12.93 0v0z"/>
    </symbol>
    <symbol id="icon-location" viewBox="0 0 24 32">
      <path d="M12.16.881C5.603.889.289 6.202.28 12.759v.019c0 2.685.9 5.16 2.414 7.14l-.021-.028s.324.426.376.486l9.11 10.747 9.114-10.749c.047-.058.372-.483.372-.483l.001-.004a11.674 11.674 0 0 0 2.394-7.11v-.015.001C24.033 6.204 18.718.889 12.16.882h-.001zm0 16.199a4.32 4.32 0 1 1 0-8.642 4.32 4.32 0 1 1 0 8.64z"/>
    </symbol>
    <symbol id="icon-menu" viewBox="0 0 24 24">
      <path d="M3 13h18c0.552 0 1-0.448 1-1s-0.448-1-1-1h-18c-0.552 0-1 0.448-1 1s0.448 1 1 1zM3 7h18c0.552 0 1-0.448 1-1s-0.448-1-1-1h-18c-0.552 0-1 0.448-1 1s0.448 1 1 1zM3 19h18c0.552 0 1-0.448 1-1s-0.448-1-1-1h-18c-0.552 0-1 0.448-1 1s0.448 1 1 1z"></path>
    </symbol>
    <symbol id="icon-close" viewBox="0 0 32 32">
      <path d="M23.734 10.304l-1.504-1.504-5.963 5.962-5.962-5.962-1.504 1.504 5.962 5.962-5.962 5.963 1.504 1.504 5.962-5.963 5.963 5.963 1.504-1.504-5.963-5.963 5.963-5.962z"></path>
    </symbol>
  </defs>
</svg>
